<svg viewBox="0 0 42 42" xmlns="http://www.w3.org/2000/svg" xmlns:xlink="http://www.w3.org/1999/xlink"><style>:root&gt;svg{display:none}:root&gt;svg:target{display:block}</style><svg fill="none" viewBox="0 0 42 42" id="arrow-icon" xmlns="http://www.w3.org/2000/svg"><path d="M12.25 29.75l17.5-17.5m-17.5 0h17.5v17.5" stroke="#FF5029" stroke-width="3" stroke-linecap="round" stroke-linejoin="round"/></svg><svg fill="none" viewBox="0 0 24 24" id="chevron-icon" xmlns="http://www.w3.org/2000/svg"><path d="M6 9l6 6 6-6" stroke="#000" stroke-width="2" stroke-linecap="round" stroke-linejoin="round"/></svg><svg fill="none" viewBox="0 0 20 20" id="facebook-icon" xmlns="http://www.w3.org/2000/svg"><path d="M11.164 17.498v-6.83h2.304l.343-2.675h-2.647V6.29c0-.772.215-1.3 1.323-1.3h1.403V2.606a18.614 18.614 0 00-2.056-.106C9.798 2.5 8.4 3.743 8.4 6.026v1.962H6.11v2.675h2.294v6.835h2.76z" fill="#FF5029"/></svg><svg fill="none" viewBox="0 0 20 20" id="instagram-icon" xmlns="http://www.w3.org/2000/svg"><path d="M9.999 6.147a3.852 3.852 0 100 7.705 3.852 3.852 0 000-7.705zm0 6.356a2.503 2.503 0 110-5.006 2.503 2.503 0 010 5.006zm4.006-5.599a.898.898 0 100-1.797.898.898 0 000 1.797z" fill="#FF5029"/><path d="M17.11 5.093a3.837 3.837 0 00-2.194-2.194 5.506 5.506 0 00-1.821-.35c-.803-.035-1.057-.045-3.092-.045s-2.296 0-3.092.045a5.462 5.462 0 00-1.82.35 3.833 3.833 0 00-2.194 2.194 5.487 5.487 0 00-.349 1.821c-.036.802-.047 1.056-.047 3.092 0 2.035 0 2.294.047 3.092.013.623.13 1.238.35 1.822a3.841 3.841 0 002.194 2.194c.58.226 1.196.355 1.821.375.803.035 1.057.045 3.092.045s2.296 0 3.091-.045a5.513 5.513 0 001.822-.35 3.844 3.844 0 002.194-2.194c.22-.583.337-1.198.35-1.821.035-.802.046-1.056.046-3.092s0-2.294-.046-3.092a5.484 5.484 0 00-.351-1.847zm-1.014 7.943c-.006.48-.093.956-.26 1.407a2.49 2.49 0 01-1.426 1.426 4.153 4.153 0 01-1.392.259c-.792.036-1.015.046-3.045.046-2.032 0-2.239 0-3.046-.046a4.133 4.133 0 01-1.39-.26 2.487 2.487 0 01-1.433-1.425 4.234 4.234 0 01-.26-1.391c-.035-.792-.043-1.015-.043-3.045 0-2.03 0-2.238.044-3.046.006-.48.092-.955.259-1.406A2.489 2.489 0 015.536 4.13a4.174 4.174 0 011.391-.26c.793-.035 1.015-.045 3.046-.045 2.031 0 2.24 0 3.045.045.476.006.946.094 1.392.26.655.252 1.172.77 1.426 1.426.164.445.252.916.26 1.391.035.793.045 1.015.045 3.046 0 2.03 0 2.248-.036 3.045h-.01z" fill="#FF5029"/></svg><svg fill="none" viewBox="0 0 20 20" id="linkedin-icon" xmlns="http://www.w3.org/2000/svg"><path d="M4.152 5.998a1.823 1.823 0 100-3.647 1.823 1.823 0 000 3.647zM7.697 7.38v10.115h3.141v-5.002c0-1.32.249-2.599 1.885-2.599 1.614 0 1.634 1.51 1.634 2.682v4.92H17.5V11.95c0-2.725-.587-4.82-3.772-4.82-1.529 0-2.554.84-2.973 1.634h-.043V7.379H7.697zm-5.118 0h3.146v10.115H2.579V7.38z" fill="#FF5029"/></svg><svg fill="none" viewBox="0 0 24 24" id="location-icon" xmlns="http://www.w3.org/2000/svg"><path d="M21 10c0 7-9 13-9 13s-9-6-9-13a9 9 0 1118 0z" stroke="#FF5029" stroke-width="1.5" stroke-linecap="round" stroke-linejoin="round"/><path d="M12 13a3 3 0 100-6 3 3 0 000 6z" stroke="#FF5029" stroke-width="1.5" stroke-linecap="round" stroke-linejoin="round"/></svg><svg fill="none" viewBox="0 0 24 24" id="mail-icon" xmlns="http://www.w3.org/2000/svg"><path d="M4 4h16c1.1 0 2 .9 2 2v12c0 1.1-.9 2-2 2H4c-1.1 0-2-.9-2-2V6c0-1.1.9-2 2-2z" stroke="#FF5029" stroke-width="1.5" stroke-linecap="round" stroke-linejoin="round"/><path d="M22 6l-10 7L2 6" stroke="#FF5029" stroke-width="1.5" stroke-linecap="round" stroke-linejoin="round"/></svg><svg fill="none" viewBox="0 0 24 24" id="search-icon" xmlns="http://www.w3.org/2000/svg"><path d="M11 19a8 8 0 100-16 8 8 0 000 16zm10 2l-4.35-4.35" stroke="#0B0614" stroke-width="2" stroke-linecap="round" stroke-linejoin="round"/></svg><svg fill="none" viewBox="0 0 20 20" id="twitter-icon" xmlns="http://www.w3.org/2000/svg"><path d="M16.36 6.664c.012.146.012.291.012.436 0 4.438-3.378 9.55-9.55 9.55a9.484 9.484 0 01-5.155-1.507c.27.031.53.042.81.042 1.57 0 3.014-.53 4.168-1.434a3.363 3.363 0 01-3.14-2.328 3.6 3.6 0 001.519-.062 3.356 3.356 0 01-2.691-3.294v-.042c.447.25.966.405 1.516.426a3.352 3.352 0 01-1.496-2.795c0-.624.165-1.195.456-1.694a9.547 9.547 0 006.922 3.513 3.815 3.815 0 01-.083-.77 3.355 3.355 0 013.356-3.356c.967 0 1.84.405 2.453 1.06a6.63 6.63 0 002.13-.81 3.35 3.35 0 01-1.476 1.85 6.728 6.728 0 001.932-.52 7.205 7.205 0 01-1.682 1.735z" fill="#FF5029"/></svg></svg>